<svg width="67" height="16" viewBox="0 0 67 16" fill="none" xmlns="http://www.w3.org/2000/svg">
<mask id="mask0_33_565" style="mask-type:luminance" maskUnits="userSpaceOnUse" x="0" y="0" width="67" height="16">
<path d="M0 0H66.784V16H0V0Z" fill="white"/>
</mask>
<g mask="url(#mask0_33_565)">
<path d="M49.9069 15.9981H48.4468C48.3723 15.998 48.2989 15.9794 48.2333 15.9439C48.1677 15.9085 48.1119 15.8573 48.071 15.795C48.03 15.7327 48.0052 15.6612 47.9986 15.5869C47.9921 15.5126 48.0041 15.4379 48.0335 15.3694L49.2122 12.6281C49.2246 12.5989 49.2311 12.5676 49.2313 12.5359C49.2316 12.5042 49.2255 12.4728 49.2135 12.4434L45.6682 3.91141C45.6389 3.84289 45.627 3.76816 45.6336 3.69393C45.6403 3.61969 45.6652 3.54826 45.7062 3.48603C45.7473 3.4238 45.8031 3.37272 45.8687 3.33736C45.9343 3.302 46.0077 3.28346 46.0822 3.28341H47.5322C47.8969 3.28341 48.2255 3.50341 48.3655 3.84008L50.5075 9.24941C50.5143 9.26679 50.5262 9.28173 50.5415 9.29232C50.5569 9.3029 50.5751 9.30863 50.5937 9.30877C50.6124 9.30892 50.6307 9.30346 50.6462 9.29312C50.6617 9.28278 50.6738 9.26802 50.6809 9.25074L52.9269 3.82674C52.9968 3.66528 53.1125 3.52782 53.2596 3.43128C53.4067 3.33474 53.5789 3.28334 53.7549 3.28341H55.2122C55.5362 3.28341 55.7549 3.61608 55.6255 3.91341L50.7349 15.4554C50.5515 15.8787 50.4269 16.0201 49.9069 15.9981ZM23.6655 15.5487V3.73408C23.6655 3.48608 23.8669 3.28474 24.1149 3.28474H25.6589C25.9069 3.28474 26.1082 3.48608 26.1082 3.73408V4.60541C26.1082 4.70141 26.2349 4.73274 26.2815 4.64941C26.8635 3.62341 28.0469 3.24674 29.1855 3.24674C31.5535 3.24674 33.7549 5.26008 33.7549 8.18941C33.7549 11.1167 31.5729 13.0941 29.2042 13.0941C28.3729 13.0941 26.9675 12.8581 26.2729 11.9181C26.2209 11.8481 26.1082 11.8854 26.1082 11.9734V15.5487C26.1082 15.6679 26.0608 15.7822 25.9766 15.8665C25.8923 15.9507 25.778 15.9981 25.6589 15.9981H24.1149C23.9957 15.9981 23.8814 15.9507 23.7971 15.8665C23.7129 15.7822 23.6655 15.6679 23.6655 15.5487ZM28.7569 10.9687C30.2495 10.9687 31.3675 9.90541 31.3675 8.18941C31.3675 6.47341 30.2495 5.39208 28.7569 5.39208C27.4329 5.39208 26.1082 6.47341 26.1082 8.18941C26.1082 9.90541 27.4322 10.9687 28.7569 10.9687ZM44.3175 12.8661H42.7622C42.7028 12.8661 42.6439 12.8544 42.5891 12.8316C42.5342 12.8089 42.4843 12.7755 42.4423 12.7335C42.4004 12.6914 42.3671 12.6415 42.3444 12.5866C42.3217 12.5317 42.3101 12.4728 42.3102 12.4134V11.6254C42.3102 11.5314 42.1862 11.4987 42.1369 11.5794C41.5315 12.5821 40.4595 13.1181 39.2122 13.1181C36.8275 13.1181 34.6122 11.1381 34.6122 8.19141C34.6122 5.24474 36.8275 3.21608 39.2122 3.21608C40.3589 3.21608 41.5502 3.59474 42.1349 4.62808C42.1822 4.71208 42.3095 4.68008 42.3095 4.58341V3.73674C42.3095 3.48741 42.5122 3.28474 42.7615 3.28474H44.3169C44.5662 3.28474 44.7689 3.48741 44.7689 3.73674V12.4134C44.7689 12.5333 44.7212 12.6483 44.6365 12.733C44.5517 12.8178 44.4367 12.8654 44.3169 12.8654L44.3175 12.8661ZM42.3109 8.19074C42.3109 6.46408 40.9775 5.37408 39.6442 5.37408C38.1422 5.37408 37.0162 6.46274 37.0162 8.19074C37.0162 9.91874 38.1429 10.9881 39.6449 10.9881C40.9782 10.9881 42.3109 9.91874 42.3109 8.19074ZM16.8562 0.00207569H15.2289C15.109 0.00207569 14.994 0.049697 14.9092 0.134463C14.8245 0.21923 14.7769 0.334198 14.7769 0.454076V12.4134C14.7769 12.6634 14.9789 12.8654 15.2289 12.8654H16.8555C16.9149 12.8655 16.9738 12.8539 17.0287 12.8312C17.0836 12.8085 17.1335 12.7752 17.1756 12.7333C17.2176 12.6913 17.251 12.6414 17.2737 12.5865C17.2965 12.5317 17.3082 12.4728 17.3082 12.4134V0.454076C17.3082 0.394718 17.2965 0.335942 17.2738 0.281103C17.2511 0.226264 17.2178 0.176436 17.1758 0.134463C17.1338 0.0924913 17.084 0.0591973 17.0292 0.0364821C16.9743 0.013767 16.9155 0.00207569 16.8562 0.00207569ZM21.3002 3.28541H19.6735C19.6141 3.28532 19.5553 3.29695 19.5003 3.31962C19.4454 3.3423 19.3955 3.37558 19.3535 3.41756C19.3114 3.45954 19.2781 3.5094 19.2553 3.56428C19.2326 3.61916 19.2209 3.678 19.2209 3.73741V12.4147C19.2209 12.6647 19.4235 12.8674 19.6729 12.8674H21.3002C21.3596 12.8675 21.4184 12.8559 21.4734 12.8332C21.5283 12.8105 21.5782 12.7772 21.6202 12.7353C21.6623 12.6933 21.6956 12.6434 21.7184 12.5885C21.7411 12.5337 21.7529 12.4748 21.7529 12.4154V3.73674C21.7529 3.67733 21.7411 3.6185 21.7184 3.56362C21.6956 3.50873 21.6623 3.45888 21.6202 3.41689C21.5782 3.37491 21.5283 3.34163 21.4734 3.31896C21.4184 3.29628 21.3596 3.28532 21.3002 3.28541ZM21.3002 0.00207569H19.6735C19.6141 0.00198806 19.5553 0.0136147 19.5003 0.0362906C19.4454 0.0589665 19.3955 0.0922467 19.3535 0.134227C19.3114 0.176208 19.2781 0.226066 19.2553 0.280949C19.2326 0.335831 19.2209 0.394662 19.2209 0.454076V2.08208C19.2209 2.33208 19.4235 2.53408 19.6729 2.53408H21.3002C21.3596 2.53416 21.4184 2.52254 21.4734 2.49986C21.5283 2.47719 21.5782 2.4439 21.6202 2.40192C21.6623 2.35994 21.6956 2.31009 21.7184 2.2552C21.7411 2.20032 21.7529 2.14149 21.7529 2.08208V0.454076C21.7529 0.394662 21.7411 0.335831 21.7184 0.280949C21.6956 0.226066 21.6623 0.176208 21.6202 0.134227C21.5782 0.0922467 21.5283 0.0589665 21.4734 0.0362906C21.4184 0.0136147 21.3596 0.00198806 21.3002 0.00207569Z" fill="#0066FF"/>
<path d="M66.4322 3.28333H65.8815C65.7215 3.30199 65.6922 3.30799 65.4802 3.35199C64.4748 3.55999 63.6708 4.09666 63.1175 5.63199H65.6895C65.8588 5.63199 66.0108 5.53199 66.0762 5.37599L66.7568 3.77199C66.7794 3.71846 66.7883 3.66018 66.7829 3.60234C66.7774 3.54451 66.7578 3.48892 66.7256 3.44053C66.6935 3.39215 66.6499 3.35247 66.5987 3.32504C66.5474 3.29761 66.4902 3.28328 66.4322 3.28333Z" fill="#00B5FF"/>
<path d="M65.4434 3.28672C62.9501 3.36206 60.6367 5.22539 60.2194 7.78672L60.1087 8.42139C60.098 8.48179 60.1007 8.54381 60.1165 8.60308C60.1323 8.66235 60.161 8.71743 60.2004 8.76446C60.2398 8.81148 60.289 8.8493 60.3446 8.87526C60.4001 8.90122 60.4607 8.91469 60.5221 8.91472H62.0301C62.1275 8.91465 62.2219 8.88069 62.2971 8.81866C62.3723 8.75663 62.4235 8.6704 62.4421 8.57472L62.6787 7.36139C62.8007 6.67606 62.9481 6.10739 63.1187 5.63272C63.6721 4.09806 64.4754 3.56139 65.4807 3.35272C65.6927 3.30872 65.7214 3.30206 65.8821 3.28406C65.8821 3.28406 65.4894 3.28606 65.4441 3.28739L65.4434 3.28672Z" fill="#0066FF"/>
<path d="M57.197 5.63132H57.7476C57.9083 5.61265 57.937 5.60598 58.1496 5.56198C59.155 5.35532 59.9583 4.81798 60.5116 3.28198H57.9403C57.8577 3.28195 57.777 3.30629 57.7082 3.35195C57.6394 3.39761 57.5856 3.46255 57.5536 3.53865L56.8736 5.14265C56.8511 5.19613 56.8421 5.25435 56.8475 5.31213C56.853 5.36992 56.8726 5.42546 56.9046 5.47383C56.9367 5.5222 56.9802 5.56189 57.0313 5.58936C57.0825 5.61684 57.1389 5.63125 57.197 5.63132Z" fill="#00B5FF"/>
<path d="M58.1855 5.628C60.6789 5.55267 62.9922 3.68933 63.4095 1.128L63.5209 0.493334C63.5316 0.432874 63.5289 0.3708 63.513 0.311482C63.4972 0.252165 63.4685 0.197047 63.429 0.150012C63.3896 0.102977 63.3403 0.0651691 63.2846 0.0392507C63.2289 0.0133323 63.1683 -6.57957e-05 63.1069 2.42943e-07H61.5995C61.5021 7.23097e-05 61.4077 0.0340324 61.3325 0.0960619C61.2573 0.158092 61.2061 0.244329 61.1875 0.34L60.9502 1.55333C60.8289 2.23867 60.6815 2.80733 60.5108 3.282C59.9575 4.81667 59.1542 5.35333 58.1488 5.562C57.9362 5.60533 57.9075 5.61267 57.7469 5.63067C57.7469 5.63067 58.1402 5.62867 58.1849 5.62733L58.1855 5.628ZM6.21019 3.708C6.29019 3.508 6.57486 3.508 6.65553 3.70933C7.28219 5.28133 10.1375 12.396 10.1375 12.396C10.2309 12.656 10.4709 12.864 10.7902 12.864H12.5369C12.5899 12.8641 12.6422 12.8512 12.6892 12.8264C12.7362 12.8017 12.7764 12.7658 12.8063 12.722C12.8363 12.6782 12.8551 12.6277 12.8611 12.5749C12.8671 12.5222 12.8602 12.4688 12.8409 12.4193C12.0522 10.464 8.73953 2.606 7.81153 0.397334C7.76115 0.279698 7.67727 0.179487 7.57034 0.109189C7.46341 0.03889 7.33816 0.00161218 7.21019 0.00200024H5.65286C5.52497 0.00158223 5.3998 0.0389412 5.29306 0.10939C5.18632 0.17984 5.10276 0.280241 5.05286 0.398C4.17553 2.47867 0.810862 10.4693 0.0228623 12.422C0.00366871 12.4711 -0.00326256 12.5241 0.00266951 12.5765C0.00860158 12.6288 0.0272179 12.679 0.0569042 12.7225C0.0865905 12.7661 0.126451 12.8017 0.173028 12.8264C0.219606 12.851 0.271495 12.8639 0.324196 12.864H2.00686C2.3182 12.864 2.60953 12.7 2.72686 12.3953L6.21019 3.708Z" fill="#0066FF"/>
<path d="M14.2643 5.23003C14.075 4.79003 13.7843 4.19337 13.5243 3.85003C13.3803 3.66003 13.173 3.61003 12.9076 3.66337C9.54964 4.3567 7.05031 5.91937 6.04497 6.9347C4.49364 8.50003 4.50497 10.0067 5.47764 10.8734C5.14697 10.226 5.62697 9.32337 7.03764 8.36803C9.66297 6.5907 13.971 5.7627 13.9803 5.76137C14.0371 5.75034 14.0907 5.72678 14.1372 5.69241C14.1837 5.65804 14.222 5.61372 14.2492 5.56268C14.2764 5.51164 14.2919 5.45518 14.2945 5.3974C14.2971 5.33962 14.2868 5.28199 14.2643 5.2287V5.23003Z" fill="url(#paint0_linear_33_565)"/>
<path d="M5.53755 9.8587C5.34488 10.236 5.32822 10.58 5.47755 10.872C5.88088 11.2454 6.97288 11.7994 9.86688 11.7227L9.30888 10.3314C8.01355 10.4707 6.22688 10.518 5.53755 9.85803V9.8587Z" fill="url(#paint1_linear_33_565)"/>
</g>
<defs>
<linearGradient id="paint0_linear_33_565" x1="1.88964" y1="10.9874" x2="11.4303" y2="5.47937" gradientUnits="userSpaceOnUse">
<stop stop-color="#0055EF"/>
<stop offset="0.1" stop-color="#0057F1"/>
<stop offset="0.18" stop-color="#0060FA"/>
<stop offset="0.2" stop-color="#0066FF"/>
<stop offset="0.36" stop-color="#006BFF"/>
<stop offset="0.56" stop-color="#007CFF"/>
<stop offset="0.8" stop-color="#0097FF"/>
<stop offset="1" stop-color="#00B5FF"/>
</linearGradient>
<linearGradient id="paint1_linear_33_565" x1="4.71422" y1="9.70737" x2="10.2935" y2="11.738" gradientUnits="userSpaceOnUse">
<stop stop-color="#000ABD"/>
<stop offset="0.11" stop-color="#0013C0"/>
<stop offset="0.31" stop-color="#002DCA"/>
<stop offset="0.55" stop-color="#0058DB"/>
<stop offset="0.84" stop-color="#0092F1"/>
<stop offset="1" stop-color="#00B5FF"/>
</linearGradient>
</defs>
</svg>
