<svg width="54" height="16" viewBox="0 0 54 16" fill="none" xmlns="http://www.w3.org/2000/svg">
<path fill-rule="evenodd" clip-rule="evenodd" d="M50.7813 11.4774L51.4444 13.305C51.5132 13.5096 51.5883 13.7523 51.6384 13.9377H51.6509C51.7072 13.7523 51.7697 13.5159 51.8448 13.2922L52.4453 11.4774H53.0271L52.2013 13.682C51.8073 14.7429 51.5383 15.2861 51.163 15.6183C50.9557 15.8055 50.7484 15.9054 50.6013 15.953C50.5562 15.8704 50.3498 15.5097 50.3498 15.5097C50.4873 15.465 50.6688 15.3755 50.8314 15.235C50.9815 15.1135 51.1692 14.8962 51.2943 14.6086C51.3193 14.5512 51.3381 14.5064 51.3381 14.4744C51.3381 14.4426 51.3256 14.3977 51.3005 14.3275L50.1808 11.4774H50.7813ZM38.1033 11.407C39.0291 11.407 39.2543 12.0524 39.2543 12.6723V13.8291C39.2543 14.0974 39.2668 14.3595 39.3044 14.5703H38.8039L38.7601 14.1804H38.7413C38.5724 14.4234 38.2472 14.6406 37.8155 14.6406C37.2025 14.6406 36.8897 14.1996 36.8897 13.7523C36.8897 13.0047 37.5402 12.5957 38.71 12.6021V12.5381C38.71 12.2826 38.6412 11.8224 38.0219 11.8224C37.7672 11.8224 37.5023 11.8957 37.2966 12.0137C37.2453 11.9236 37.1086 11.6819 37.1086 11.6819C37.3589 11.5156 37.7217 11.407 38.1033 11.407ZM48.4047 11.407C49.3305 11.407 49.5557 12.0524 49.5557 12.6723V13.8291C49.5557 14.0974 49.5682 14.3595 49.6057 14.5703H49.1053L49.0615 14.1804H49.0427C48.8738 14.4234 48.5486 14.6406 48.1169 14.6406C47.5039 14.6406 47.191 14.1996 47.191 13.7523C47.191 13.0047 47.8416 12.5957 49.0115 12.6021V12.5381C49.0115 12.2826 48.9426 11.8224 48.3233 11.8224C48.0686 11.8224 47.8037 11.8957 47.598 12.0137C47.5466 11.9236 47.4101 11.6819 47.4101 11.6819C47.6603 11.5156 48.023 11.407 48.4047 11.407ZM31.6237 10.1928C32.1492 10.1928 32.4808 10.3078 32.6246 10.3846C32.6246 10.3846 32.4583 10.6799 32.3902 10.7924C32.1936 10.714 31.9381 10.6594 31.6424 10.6594C30.654 10.6594 29.9972 11.3048 29.9972 12.4359C29.9972 13.4903 30.5915 14.1677 31.6174 14.1677C31.8974 14.1677 32.1819 14.1175 32.3954 14.0365C32.445 14.1249 32.6183 14.4298 32.6183 14.4298C32.4181 14.532 32.0177 14.6343 31.5048 14.6343C30.3162 14.6343 29.4217 13.8673 29.4217 12.455C29.4217 11.1067 30.3162 10.1928 31.6237 10.1928ZM27.5332 11.407C28.5215 11.407 28.7843 12.2953 28.7843 12.864C28.7843 12.979 28.7718 13.0685 28.7655 13.1261H26.6386C26.6511 13.8865 27.1265 14.1996 27.6771 14.1996C28.0017 14.1996 28.2202 14.152 28.4026 14.0852C28.4532 14.1703 28.6091 14.4426 28.6091 14.4426C28.4152 14.532 28.0836 14.6343 27.6019 14.6343C26.6699 14.6343 26.1131 14.0081 26.1131 13.0749C26.1131 12.1419 26.6511 11.407 27.5332 11.407ZM40.9678 10.5891V11.4774H41.7561V11.9055H40.9678V13.5734C40.9678 13.9569 41.0742 14.1741 41.3808 14.1741C41.4257 14.1741 41.4671 14.1722 41.5048 14.169C41.5694 14.2801 41.7247 14.5576 41.7247 14.5576C41.6184 14.6022 41.4495 14.6342 41.2369 14.6342C40.9804 14.6342 40.774 14.5512 40.6426 14.3977C40.4862 14.2317 40.4299 13.9569 40.4299 13.5925V11.9055H39.9607V11.4774H40.4299V10.5891H40.9678ZM45.1396 10.2313C45.6776 10.2313 46.0717 10.359 46.322 10.5891C46.5535 10.7935 46.691 11.1067 46.691 11.4901C46.691 11.88 46.5784 12.1867 46.3658 12.4104C46.078 12.7235 45.6089 12.8832 45.0771 12.8832C44.9145 12.8832 44.7644 12.8768 44.6392 12.8449V14.5703H44.095V10.3142C44.3577 10.2695 44.7018 10.2313 45.1396 10.2313ZM21.272 10.2632L21.7725 12.4423C21.8976 12.979 22.0102 13.5159 22.0853 13.9313H22.0978C22.1666 13.5032 22.298 12.992 22.4419 12.4359L23.0048 10.2632H23.574L24.087 12.4487C24.2059 12.9599 24.3185 13.4711 24.381 13.9249H24.3936C24.4811 13.452 24.6 12.9726 24.7314 12.4359L25.2881 10.2632H25.8448L24.65 14.5703H24.0807L23.5491 12.3273C23.4177 11.7777 23.3302 11.356 23.2738 10.9213H23.2613C23.1863 11.3496 23.0924 11.7714 22.936 12.3273L22.3355 14.5703H21.7662L20.6965 10.2632H21.272ZM34.019 10.0332V11.9631H34.0315C34.1191 11.8033 34.2567 11.6628 34.4256 11.5669C34.5883 11.471 34.7821 11.407 34.9887 11.407C35.3953 11.407 36.0458 11.6628 36.0458 12.7298V14.5703H35.4953V12.7939C35.4953 12.2953 35.3139 11.8736 34.7947 11.8736C34.4381 11.8736 34.1566 12.1291 34.0565 12.4359C34.0253 12.5126 34.019 12.5957 34.019 12.7043V14.5703H33.4685V10.0332H34.019ZM37.4402 13.6884C37.4402 14.0527 37.6778 14.2253 37.9594 14.2253C38.3535 14.2253 38.6037 13.9696 38.6912 13.7077C38.71 13.6501 38.7225 13.5861 38.7225 13.5287V12.992C38.122 12.979 37.4402 13.0877 37.4402 13.6884ZM47.7416 13.6884C47.7416 14.0527 47.9793 14.2253 48.2608 14.2253C48.6549 14.2253 48.9051 13.9696 48.9927 13.7077C49.0115 13.6501 49.024 13.5861 49.024 13.5287V12.992C48.4234 12.979 47.7416 13.0877 47.7416 13.6884ZM27.4893 11.8096C26.9326 11.8096 26.6886 12.3336 26.6448 12.7235H28.2526C28.2588 12.3656 28.1087 11.8096 27.4893 11.8096ZM45.1522 10.6722C44.9145 10.6722 44.733 10.6913 44.6392 10.7169V12.3912C44.7581 12.4231 44.9082 12.4359 45.0896 12.4359C45.7465 12.4359 46.1469 12.11 46.1469 11.5156C46.1469 10.947 45.7527 10.6722 45.1522 10.6722ZM41.4478 0.961925V2.0936H44.7239V2.68153H41.4478V3.91022H44.0922C44.0922 3.91022 43.7528 5.67554 41.7709 7.16188C42.5726 7.59328 43.6289 7.89883 44.9167 8.10476C44.9167 8.10476 44.7078 8.48313 44.5299 8.77576C43.1214 8.52566 42.0205 8.0871 41.1581 7.5733C40.2893 8.10007 39.1652 8.5588 37.712 8.81718C37.6107 8.66467 37.3352 8.16524 37.3352 8.16524C38.6523 7.95472 39.7373 7.61414 40.5473 7.16987C38.5555 5.71057 38.1722 3.91022 38.1722 3.91022H40.809V2.68153H37.4062V2.0936H40.809V0.961925H41.4478ZM22.0402 3.12428L22.551 3.40138C22.3086 3.99071 22.0823 4.39168 22.0204 4.51757V8.79258H21.4449V5.44081C21.1157 5.89229 20.9223 6.12865 20.826 6.24013C20.7582 6.12018 20.5018 5.66638 20.5018 5.66638C21.1197 4.99973 21.6644 4.08409 22.0402 3.12428ZM47.3587 0.985469L48.0297 1.13779L48.0089 1.19352C47.7371 1.91915 47.4827 2.53689 47.2526 3.02969V8.79258H46.6137V4.27057C46.394 4.63738 46.1385 5.01231 45.8516 5.38913L45.4976 4.75868C46.2502 3.71269 46.8835 2.44133 47.3443 1.02945L47.3587 0.985469ZM30.5573 0.983921L31.1622 1.13837C31.1622 1.13837 30.777 2.37823 30.4824 3.03041L30.4839 8.79258H29.845V4.29379C29.5891 4.7865 29.4176 5.11014 29.2005 5.40002L28.8547 4.78819C29.7508 3.63242 30.5573 0.983921 30.5573 0.983921ZM26.4892 0.953003L27.0648 1.07072L27.0513 1.12346C26.9327 1.58806 26.8015 2.04452 26.6607 2.48158H28.3823V3.03724H27.9675C27.8603 4.61531 27.587 5.83761 27.1548 6.67134C27.4976 7.35289 28.1587 7.9921 28.3451 8.16474C28.3033 8.24574 28.0156 8.74933 28.0156 8.74933C28.0156 8.74933 27.0588 7.74819 26.8422 7.26395C26.5988 7.68161 26.1496 8.22314 25.5407 8.77831L25.2309 8.22585C25.2309 8.22585 26.0638 7.51977 26.5355 6.6679C26.2419 5.90197 26.0471 5.0799 25.9557 4.22122C25.855 4.40276 25.7998 4.5002 25.6985 4.65547C25.6985 4.65547 25.4298 4.17835 25.3752 4.08912C25.8582 3.221 26.2206 2.19819 26.4786 1.00236L26.4892 0.953003ZM52.0309 1.01965V2.86958L53.1397 2.86961V3.4899L52.0309 3.48988V7.51795C52.0309 8.1591 51.5202 8.68083 50.8925 8.68083H50.1482V8.00151H50.8925C51.1536 8.00151 51.3661 7.78455 51.3661 7.51795V3.48988L47.8164 3.4899V2.86961L51.3661 2.86958V1.01965H52.0309ZM36.1177 5.94128V8.64735H31.6175V5.94128H36.1177ZM25.0589 5.61795V7.11222C25.1663 7.01918 25.4961 6.72302 25.6068 6.62233L25.8718 7.09118L24.6572 8.13852C24.6572 8.13852 24.4003 7.68534 24.3484 7.59956C24.4199 7.51856 24.5152 7.35067 24.5152 7.03094L24.515 6.17355H23.4131C23.4131 7.45174 23.3629 7.91459 22.5283 8.58105C22.5283 8.58105 22.3269 8.21831 22.2375 8.06662C22.9542 7.48803 22.8692 6.69756 22.8692 5.61795H25.0589ZM35.5105 6.5292H32.2563V8.0917H35.5105V6.5292ZM43.1978 4.48958H39.0841C39.3195 4.98998 39.9031 5.95627 41.1605 6.79619C42.4121 5.94277 42.9779 4.97043 43.1978 4.48958ZM49.1113 4.44943L50.2701 6.33102L49.6649 6.66841L48.578 4.77182L49.1113 4.44943ZM27.4236 3.03724H26.4766C26.4671 3.07633 26.3776 3.30582 26.3578 3.35033C26.4756 4.50765 26.6503 5.3946 26.8774 5.98978C27.1587 5.29996 27.3424 4.30787 27.4236 3.03724ZM36.1811 4.64795V5.20355H31.5542V4.64795H36.1811ZM25.3438 4.35691V4.91252H22.7426V4.35691H25.3438ZM36.1811 3.35462V3.91022H31.5542V3.35462H36.1811ZM24.3626 1.09127V3.12828H24.9504V1.67324H25.4626V3.65156H22.6877V1.70561H23.2316V3.12828H23.8187V1.09127H24.3626ZM22.0701 0.956162L22.5722 1.2921C22.1917 2.11305 21.5993 2.96133 20.9058 3.60887L20.6026 3.07252C21.1529 2.53022 21.6735 1.76647 22.0701 0.956162ZM33.8644 0.983931L34.3159 2.02894L36.6242 2.02896V2.61689H31.1427V2.02896L33.6753 2.02894L33.3467 1.21386L33.8644 0.983931Z" fill="#4D4D4D"/>
<path fill-rule="evenodd" clip-rule="evenodd" d="M6.4562 10.1209C6.37606 10.1622 6.28588 10.1861 6.18997 10.1861C5.96802 10.1861 5.7752 10.0614 5.67375 9.87678L5.63501 9.79008L4.0191 6.16778C4.00167 6.1283 3.99087 6.08378 3.99087 6.04038C3.99087 5.8735 4.12335 5.73817 4.28675 5.73817C4.35311 5.73817 4.4144 5.76072 4.4637 5.79817L6.37061 7.18512C6.50991 7.27822 6.67635 7.33284 6.85538 7.33284C6.96214 7.33284 7.06397 7.31242 7.15879 7.27725L16.1262 3.20004C14.5188 1.26474 11.8716 0 8.87583 0C3.97368 0 0 3.38293 0 7.55628C0 9.83299 1.19556 11.8825 3.0668 13.2677C3.21695 13.3772 3.31523 13.5571 3.31523 13.7602C3.31523 13.8273 3.30121 13.8886 3.28401 13.9526C3.13453 14.5222 2.89539 15.4342 2.88417 15.4769C2.86555 15.5485 2.83643 15.623 2.83643 15.6978C2.83643 15.8648 2.96885 16 3.1325 16C3.19653 16 3.24911 15.9757 3.30324 15.9438L5.24639 14.7977C5.3926 14.7116 5.54729 14.6581 5.71785 14.6581C5.80855 14.6581 5.89617 14.6725 5.97858 14.6982C6.88517 14.9646 7.86314 15.1126 8.87583 15.1126C13.7778 15.1126 17.752 11.7294 17.752 7.55628C17.752 6.29223 17.3853 5.10186 16.7409 4.05466L6.52095 10.0827L6.4562 10.1209Z" fill="#1AAD19"/>
</svg>
