<svg width="84" height="16" viewBox="0 0 84 16" fill="none" xmlns="http://www.w3.org/2000/svg">
<g clip-path="url(#clip0_33_458)">
<path d="M0.00401901 13.3246V1.19849C-0.0430177 0.459078 0.384075 0.060207 1.28154 0H4.1583C4.74344 0 5.09151 0.372531 5.19687 1.11947V9.03104C5.19687 9.61618 5.23826 10.0169 5.31728 10.2277C5.39631 10.4421 5.6503 10.2559 6.07551 9.66698L16.386 0H22.6211C23.3606 0.0338664 23.4396 0.378175 22.8601 1.03857L16.8563 7.40169L13.21 10.9991L10.9824 13.3942C9.12537 15.1326 7.30411 16 5.5186 16H3.28154C1.09527 16 0.00401901 15.1063 0.00401901 13.3246Z" fill="#E1012B"/>
<path d="M17.5428 8.7771L18.2917 9.4676L24.2352 14.9596C24.8147 15.6219 24.7357 15.9662 23.9963 16.0001H17.763L15.1854 13.5842L13.8965 12.3745L17.5428 8.7771Z" fill="#EF8600"/>
<path d="M32.1468 0C32.8391 0.265287 33.238 0.771402 33.3453 1.51646V14.5626C33.238 15.3622 32.8391 15.8401 32.1468 16H28.1505C27.6049 15.8137 27.206 15.334 26.952 14.5626V1.35654C27.238 0.637818 27.6651 0.186265 28.2314 0H32.1468Z" fill="#E1012B"/>
<path d="M43.8156 3.83443C42.8034 3.83443 42.2973 4.34243 42.2973 5.35466V10.6472C42.2973 11.6331 42.6962 12.111 43.4977 12.0865H57.3227C57.9624 12.0865 58.2822 12.3782 58.2822 12.9652V15.0235C58.2822 15.6764 57.9361 16.0019 57.2437 16.0019H39.1044C37.2249 15.8156 36.1618 14.8579 35.9059 13.1232V2.79774C36.1919 1.11947 37.3641 0.186265 39.4224 0H57.4036C57.9887 0 58.2822 0.293509 58.2822 0.878645V2.79774C58.2822 3.49012 57.9887 3.83443 57.4036 3.83443H43.8175H43.8156Z" fill="#E1012B"/>
<path d="M68.8278 3.83443C67.8156 3.83443 67.3114 4.34243 67.3114 5.35466V10.6472C67.3114 11.6331 67.7103 12.111 68.5099 12.0865H82.3349C82.9765 12.0865 83.2944 12.3782 83.2944 12.9652V15.0235C83.2944 15.6764 82.9483 16.0019 82.254 16.0019H64.1148C62.2371 15.8156 61.1703 14.8579 60.9182 13.1232V2.79774C61.2041 1.11947 62.3763 0.186265 64.4346 0H82.4158C83.0028 0 83.2963 0.293509 83.2963 0.878645V2.79774C83.2963 3.49012 83.0028 3.83443 82.4158 3.83443H68.8297H68.8278Z" fill="#E1012B"/>
</g>
<defs>
<clipPath id="clip0_33_458">
<rect width="83.2926" height="16" fill="white"/>
</clipPath>
</defs>
</svg>
