<svg width="55" height="16" viewBox="0 0 55 16" fill="none" xmlns="http://www.w3.org/2000/svg">
<path d="M8.90295 3.47388H7.56804C7.36303 3.47388 7.19684 3.64013 7.19684 3.84522V12.1577C7.19684 12.3628 7.36303 12.5291 7.56804 12.5291H8.90295C9.10796 12.5291 9.27415 12.3628 9.27415 12.1577V3.84522C9.27415 3.64013 9.10796 3.47388 8.90295 3.47388Z" fill="black"/>
<path d="M5.67595 10.4512H2.07743V3.84546C2.07743 3.64088 1.91074 3.47412 1.70623 3.47412H0.37132C0.166811 3.47412 0.00012207 3.64088 0.00012207 3.84546V12.158C0.00012207 12.3625 0.166811 12.5293 0.37132 12.5293H5.67595C5.88046 12.5293 6.04715 12.3625 6.04715 12.158V10.8225C6.04715 10.6179 5.88046 10.4512 5.67595 10.4512Z" fill="black"/>
<path d="M25.5229 5.552C25.7274 5.552 25.8941 5.38525 25.8941 5.18066V3.84522C25.8941 3.64063 25.7274 3.47388 25.5229 3.47388H20.2182C20.0137 3.47388 19.847 3.64063 19.847 3.84522V12.1577C19.847 12.3623 20.0137 12.5291 20.2182 12.5291H25.5229C25.7274 12.5291 25.8941 12.3623 25.8941 12.1577V10.8223C25.8941 10.6177 25.7274 10.4509 25.5229 10.4509H21.9244V9.04123H25.5229C25.7274 9.04123 25.8941 8.87447 25.8941 8.66988V7.33445C25.8941 7.12986 25.7274 6.9631 25.5229 6.9631H21.9244V5.5534H25.5229V5.552Z" fill="black"/>
<path d="M18.0666 3.47386H16.7317C16.5272 3.47386 16.3605 3.64061 16.3605 3.8452V8.65585L12.8657 3.65743C12.7662 3.51589 12.6191 3.47526 12.4552 3.47526C12.4342 3.47105 12.4132 3.47526 12.3922 3.47526H11.0573C10.8528 3.47526 10.6861 3.64201 10.6861 3.8466V12.1591C10.6861 12.3637 10.8528 12.5304 11.0573 12.5304H12.3922C12.5967 12.5304 12.7634 12.3637 12.7634 12.1591V7.13544L16.4068 12.3483C16.4194 12.3665 16.4348 12.3833 16.4488 12.4001C16.5118 12.4744 16.6029 12.5248 16.7051 12.5318H18.0666C18.2711 12.5318 18.4378 12.3651 18.4378 12.1605V3.8452C18.4378 3.64061 18.2711 3.47386 18.0666 3.47386Z" fill="black"/>
<path d="M53.9527 0H30.3095C29.7974 0 29.3822 0.415327 29.3822 0.927658V15.0723C29.3822 15.5847 29.7974 16 30.3095 16H53.9527C54.4649 16 54.88 15.5847 54.88 15.0723V0.927658C54.88 0.415327 54.4649 0 53.9527 0Z" fill="#08BF5B"/>
<path d="M38.5753 6.2399C38.5753 7.6454 37.4449 8.77624 35.9867 8.77624H34.8773V10.853C34.8773 10.9903 34.7652 11.1024 34.628 11.1024H33.4359C33.2986 11.1024 33.1866 10.9903 33.1866 10.853V3.95158C33.1866 3.81425 33.2986 3.70215 33.4359 3.70215H35.9867C37.4449 3.70215 38.5753 4.83299 38.5753 6.23849V6.2399ZM36.8846 6.2399C36.8846 5.7004 36.5036 5.28842 35.9867 5.28842H34.8773V7.19138H35.9867C36.505 7.19138 36.8846 6.77939 36.8846 6.2399Z" fill="white"/>
<path d="M44.8505 5.94854V10.9708C44.8505 11.0436 44.7917 11.1025 44.7188 11.1025H43.3965C43.3237 11.1025 43.2648 11.0436 43.2648 10.9708V10.605C42.9161 11.0072 42.3992 11.2496 41.6904 11.2496C40.3065 11.2496 39.1649 10.0347 39.1649 8.45966C39.1649 6.8846 40.3065 5.66968 41.6904 5.66968C42.3978 5.66968 42.9161 5.9121 43.2648 6.31427V5.94854C43.2648 5.87567 43.3237 5.81681 43.3965 5.81681H44.7188C44.7917 5.81681 44.8505 5.87567 44.8505 5.94854ZM43.2662 8.45966C43.2662 7.66652 42.7382 7.17047 42.0084 7.17047C41.2786 7.17047 40.7505 7.66652 40.7505 8.45966C40.7505 9.25279 41.2786 9.74885 42.0084 9.74885C42.7382 9.74885 43.2662 9.25279 43.2662 8.45966Z" fill="white"/>
<path d="M50.1244 5.95416L48.9086 9.01879L47.6507 5.95136C47.6171 5.86868 47.5372 5.81543 47.449 5.81543H46.1001C46.0062 5.81543 45.9432 5.90932 45.9782 5.9962L48.0765 11.1123L47.3117 13.0391C47.2781 13.1246 47.3411 13.2185 47.4336 13.2185H48.7825C48.8721 13.2185 48.952 13.1638 48.9856 13.0812L51.7969 5.9948C51.8305 5.90932 51.7675 5.81543 51.675 5.81543H50.3261C50.2365 5.81543 50.1566 5.87008 50.123 5.95276L50.1244 5.95416Z" fill="white"/>
</svg>
